# xmcd
#
# Track frame offsets:
#	150
#	7035
#	14180
#	21477
#	27567
#	35410
#	44212
#	51140
#	57872
#	64810
#	72502
#	79592
#	87207
#	94195
#	101042
#	108425
#	115560
#	122187
#	128602
#	135515
#	142627
#	150185
#	157162
#	163857
#	170660
#	176517
#	182660
#	188197
#	194607
#	201367
#	208350
#	215130
#	220545
#	224965
#	232242
#	238810
#	243412
#	249700
#	255850
#	262012
#	267432
#	273037
#	278377
#	283702
#	290735
#	297542
#	303032
#	307262
#	313925
#	323007
#
# Disc length: 4440
#
# Revision: 2
# Processed by: cddbd v1.5.1PL0 Copyright (c) Steve Scherf et al.
# Submitted via: CDex 1.50
# Normalized: r0:TDELIM( - ),TSWAP
#
DISCID=14115632
DTITLE=Various Artist - tune up 50
DYEAR=2004
DGENRE=Jazz
TTITLE0=Jimmu Smith - The Cat
TTITLE1=Stan Getz and Astrud Gilberto - The Girl From Ipanema
TTITLE2=John Coltrane - Say It
TTITLE3=Helen Merrill - You'd Be So Nice To Come Home To
TTITLE4=Peggy Lee - Black Coffee
TTITLE5=Stan Getz - Desafinado
TTITLE6=Oscar Peterson - Tonight
TTITLE7=Bill Evans - Round Midnight
TTITLE8=Lionel Hampton - Stardust
TTITLE9=Ramsey Lewis Trio - The In Crowd
TTITLE10=Miles Davis - Generique
TTITLE11=Count Basie - Shiny Stockings
TTITLE12=Erroll Garner - Misty
TTITLE13=Charlie Parker - Now's The Time
TTITLE14=Mel Torme - Too Close For Comfort
TTITLE15=Astrud Gilberto - Aqua De Beber
TTITLE16=Patti Page - Tennessee Waltz
TTITLE17=Cassandra Wilson - I Didn't Know What Time It Was
TTITLE18=Bud Powell - Parisian Thoroughfare
TTITLE19=Quincy Jones - Soul Bossa Nova
TTITLE20=Anita O'Day - Tenderly
TTITLE21=Chet Baker - Everthing Happens To Me
TTITLE22=Jacques Loussier - Toccata And Fugue In D Minor BWV 565
TTITLE23=Clifford Brown - What's New
TTITLE24=Wes Montgomery and Wynton Kelly Trio - Four On Six
TTITLE25=Quincy Jones - Ai No Corrida
TTITLE26=Lalo Schifrin - Old Laces
TTITLE27=Count Basie - April In Paris
TTITLE28=Louis Armstrong - What A Wonderful World
TTITLE29=wes Montgomery - California Dreaming
TTITLE30=Chuck Mangione - Feel So Good
TTITLE31=Louis Armstrong - Hello, Dolly!
TTITLE32=The Brecker Brothers - King Of The Lobby
TTITLE33=Astrud Gilberto - The Shadow Of Your Smile
TTITLE34=Dinah Washington - What A Difference A Day Made
TTITLE35=Billie Holiday - Strange Fruit
TTITLE36=Bill Evans - Autumn Leaves
TTITLE37=Sarah Vaughan - Lullaby Of Birdland
TTITLE38=Stan - Billie's Bounce
TTITLE39=Gerry Mulligan Sextet - Prelude In E Minor
TTITLE40=Walter Wanderley - Summer Samba
TTITLE41=Ella Fitzgerald - Mack The Knife
TTITLE42=George Shearing Quintet - September In The Rain
TTITLE43=Art Famer - Summer Knows
TTITLE44=Oscar Peterson Trio - Quiet Nights Of Quiet Stars
TTITLE45=Stan Getz - Stella By Starlight
TTITLE46=Gary Thomas - Strode Rode
TTITLE47=The Singers Unlimited - Fool On The Hill
TTITLE48=Charlie Parker - I'll Remember April
TTITLE49=Eric Dolphy - Miss Ann
EXTD=YEAR: 2004
EXTT0=
EXTT1=
EXTT2=
EXTT3=
EXTT4=
EXTT5=
EXTT6=
EXTT7=
EXTT8=
EXTT9=
EXTT10=
EXTT11=
EXTT12=
EXTT13=
EXTT14=
EXTT15=
EXTT16=
EXTT17=
EXTT18=
EXTT19=
EXTT20=
EXTT21=
EXTT22=
EXTT23=
EXTT24=
EXTT25=
EXTT26=
EXTT27=
EXTT28=
EXTT29=
EXTT30=
EXTT31=
EXTT32=
EXTT33=
EXTT34=
EXTT35=
EXTT36=
EXTT37=
EXTT38=
EXTT39=
EXTT40=
EXTT41=
EXTT42=
EXTT43=
EXTT44=
EXTT45=
EXTT46=
EXTT47=
EXTT48=
EXTT49=
PLAYORDER=
